<svg xmlns="http://www.w3.org/2000/svg" width="24" height="24" fill="none" viewBox="0 0 24 24"><path fill="#000" d="M14.972 14.377c-.518.45-1.163 1.011-2.337 1.011h-.701c-.849 0-1.62-.302-2.173-.85a2.882 2.882 0 0 1-.837-2.066v-.941c0-.796.297-1.53.837-2.065.553-.549 1.324-.851 2.173-.851h.7c1.175 0 1.82.56 2.338 1.011.538.468 1.002.871 2.239.871.192 0 .38-.015.564-.044l-.005-.01a4.154 4.154 0 0 0-.26-.525l-.826-1.405a4.263 4.263 0 0 0-3.679-2.083h-1.654c-1.517 0-2.92.794-3.678 2.083l-.827 1.405a4.098 4.098 0 0 0 0 4.167l.827 1.405a4.262 4.262 0 0 0 3.678 2.083h1.654c1.517 0 2.92-.794 3.679-2.083l.826-1.405c.1-.17.187-.345.26-.524l.005-.01a3.59 3.59 0 0 0-.564-.045c-1.237 0-1.701.404-2.239.871Z"/><path fill="#000" d="M12.635 9.467h-.7c-1.292 0-2.141.905-2.141 2.064v.941c0 1.159.848 2.064 2.14 2.064h.701c1.882 0 1.734-1.883 4.576-1.883.272 0 .541.025.803.073a4.083 4.083 0 0 0 0-1.448 4.45 4.45 0 0 1-.803.072c-2.842 0-2.694-1.883-4.576-1.883Z"/><path fill="#000" d="M19.646 13.413a3.998 3.998 0 0 0-1.632-.688l-.003.013a4.07 4.07 0 0 1-.237.811c.498.08.957.263 1.35.545l-.004.013a7.06 7.06 0 0 1-1.014 2.018 7.315 7.315 0 0 1-5.951 3.022 7.364 7.364 0 0 1-2.836-.561 7.275 7.275 0 0 1-2.317-1.532 7.118 7.118 0 0 1-1.561-2.273A6.991 6.991 0 0 1 4.869 12c0-.965.192-1.9.572-2.782a7.121 7.121 0 0 1 1.561-2.272A7.274 7.274 0 0 1 9.32 5.413a7.361 7.361 0 0 1 2.836-.562 7.315 7.315 0 0 1 5.951 3.023 7.068 7.068 0 0 1 1.014 2.018l.004.013a3.141 3.141 0 0 1-1.35.545c.108.263.187.536.237.811l.003.014a4 4 0 0 0 1.632-.689c.465-.337.375-.719.305-.945C18.925 6.375 15.823 4 12.155 4 7.651 4 4 7.582 4 12s3.651 8 8.155 8c3.668 0 6.77-2.375 7.796-5.643.07-.225.161-.606-.305-.944Z"/></svg>