<svg xmlns="http://www.w3.org/2000/svg" width="24" height="24" fill="none" viewBox="0 0 24 24"><path fill="#000" fill-rule="evenodd" d="M12 4c-4.42 0-8 3.67-8 8.201 0 3.625 2.293 6.696 5.47 7.784.399.075.546-.177.546-.398 0-.196-.005-.71-.01-1.395-2.225.494-2.696-1.097-2.696-1.097-.363-.947-.889-1.203-.889-1.203-.727-.509.054-.499.054-.499.8.06 1.228.846 1.228.846.712 1.253 1.871.891 2.328.68.073-.529.28-.892.505-1.098-1.772-.201-3.639-.906-3.639-4.048 0-.896.31-1.626.826-2.2-.084-.211-.359-1.042.073-2.17 0 0 .673-.221 2.2.841A7.585 7.585 0 0 1 12 7.967a7.613 7.613 0 0 1 2.004.277c1.527-1.062 2.2-.84 2.2-.84.437 1.127.162 1.963.078 2.17.511.573.82 1.303.82 2.2 0 3.15-1.87 3.84-3.653 4.047.285.252.545.755.545 1.52 0 1.098-.01 1.98-.01 2.25 0 .223.143.474.55.394C17.712 18.897 20 15.826 20 12.206 20 7.67 16.42 4 12 4Z" clip-rule="evenodd"/></svg>