<svg xmlns="http://www.w3.org/2000/svg" width="24" height="24" fill="none" viewBox="0 0 24 24"><path fill="#000" d="M12.528 20c1.38 0 3.14-.382 3.98-.713l-.38-1.172c-.487.153-2.057.662-3.546.662-4.63 0-7.093-2.446-7.093-6.777 0-4.255 2.518-6.803 6.768-6.803 4.305 0 6.335 2.854 6.335 5.707 0 2.905-.325 4.204-1.705 4.204-.813 0-1.246-.637-1.246-1.35V8h-1.435v.713h-.08c-.19-.56-1.246-1.044-2.6-.917C9.496 8 7.953 9.58 7.953 11.873c0 2.42 1.218 4.28 3.573 4.356 1.543.051 2.356-.662 2.68-1.401h.082c.162 1.096 1.624 1.478 2.572 1.478 2.87 0 3.14-2.905 3.14-5.376C20 7.44 17.401 4 12.338 4 7.113 4 4 6.98 4 11.95 4 17.095 7.005 20 12.528 20Zm-.785-5.07c-1.76 0-2.383-1.503-2.383-3.134 0-1.477.894-2.751 2.437-2.751 1.624 0 2.49.611 2.49 2.751 0 2.115-.73 3.134-2.544 3.134Z"/></svg>