<svg xmlns="http://www.w3.org/2000/svg" width="24" height="24" fill="none" viewBox="0 0 24 24"><path fill="#000" d="m15.65 11.515-5.604-3.243-.696 1.162 5.604 3.243.695-1.162Zm-.813 1.609L8.57 11.385l-.354 1.302 6.285 1.667.335-1.23Zm-.364 1.724-6.582-.65-.126 1.344 6.589.586.12-1.28Zm-.024 1.819H7.695V18h6.754v-1.333Z"/><path fill="#000" d="M5.5 20h11.143v-7H15.63v6H6.513v-6H5.5v7Zm6.674-13.923 3.606 5.219 1.129-.76-3.606-5.219-1.13.76Zm3.886-1.846 1.094 6.224 1.346-.231L17.405 4l-1.345.231Z"/></svg>