<svg xmlns="http://www.w3.org/2000/svg" width="24" height="24" fill="none" viewBox="0 0 24 24"><path fill="#000" d="M14.972 14.377c-.518.45-1.163 1.011-2.337 1.011h-.701c-.849 0-1.62-.302-2.173-.85a2.88 2.88 0 0 1-.837-2.066v-.941c0-.796.297-1.53.837-2.065.553-.549 1.324-.851 2.173-.851h.7c1.175 0 1.82.56 2.338 1.011.538.468 1.002.871 2.239.871q.288 0 .564-.044l-.005-.01a4 4 0 0 0-.26-.525l-.826-1.405a4.26 4.26 0 0 0-3.679-2.083h-1.654c-1.517 0-2.92.794-3.678 2.083l-.827 1.405a4.1 4.1 0 0 0 0 4.167l.827 1.405a4.26 4.26 0 0 0 3.678 2.083h1.654c1.517 0 2.92-.794 3.679-2.083l.826-1.405q.15-.255.26-.524l.005-.01a3.6 3.6 0 0 0-.564-.045c-1.237 0-1.701.404-2.239.871"/><path fill="#000" d="M12.635 9.467h-.7c-1.292 0-2.141.905-2.141 2.064v.941c0 1.159.848 2.064 2.14 2.064h.701c1.882 0 1.734-1.883 4.576-1.883q.409 0 .803.073a4.1 4.1 0 0 0 0-1.448 4.5 4.5 0 0 1-.803.072c-2.842 0-2.694-1.883-4.576-1.883"/><path fill="#000" d="M19.646 13.413a4 4 0 0 0-1.632-.688l-.003.013a4 4 0 0 1-.237.811c.498.08.957.263 1.35.545l-.004.013a7 7 0 0 1-1.014 2.018 7.32 7.32 0 0 1-5.951 3.022 7.4 7.4 0 0 1-2.836-.561 7.3 7.3 0 0 1-2.317-1.532 7.1 7.1 0 0 1-1.561-2.273A7 7 0 0 1 4.869 12c0-.965.192-1.9.572-2.782a7.1 7.1 0 0 1 1.561-2.272A7.3 7.3 0 0 1 9.32 5.413a7.4 7.4 0 0 1 2.836-.562 7.32 7.32 0 0 1 5.951 3.023 7 7 0 0 1 1.014 2.018l.004.013a3.14 3.14 0 0 1-1.35.545c.108.263.187.536.237.811l.003.014a4 4 0 0 0 1.632-.689c.465-.337.375-.719.305-.945C18.925 6.375 15.823 4 12.155 4 7.651 4 4 7.582 4 12s3.651 8 8.155 8c3.668 0 6.77-2.375 7.796-5.643.07-.225.161-.606-.305-.944"/></svg>