<svg xmlns="http://www.w3.org/2000/svg" width="24" height="24" fill="none" viewBox="0 0 24 24"><path fill="#4678EB" d="M15.728 4a1 1 0 0 1-.707-.293l-2.314-2.314a1 1 0 0 0-1.414 0L8.979 3.707A1 1 0 0 1 8.272 4H5a1 1 0 0 0-1 1v3.272a1 1 0 0 1-.293.707l-2.314 2.314a1 1 0 0 0 0 1.414l2.314 2.314a1 1 0 0 1 .293.707V19a1 1 0 0 0 1 1h3.272a1 1 0 0 1 .707.293l2.314 2.314a1 1 0 0 0 1.414 0l2.314-2.314a1 1 0 0 1 .707-.293H19a1 1 0 0 0 1-1v-3.272a1 1 0 0 1 .293-.707l2.314-2.314a1 1 0 0 0 0-1.414l-2.314-2.314A1 1 0 0 1 20 8.272V5a1 1 0 0 0-1-1z"/><path fill="#fff" fill-rule="evenodd" d="m16.747 9.022-5.714 7.685-3.712-2.76 1.044-1.405 2.308 1.716 4.67-6.28z" clip-rule="evenodd"/></svg>